<svg id="visual" viewBox="0 0 900 600" width="900" height="600" xmlns="http://www.w3.org/2000/svg" xmlns:xlink="http://www.w3.org/1999/xlink" version="1.1"><rect x="0" y="0" width="900" height="600" fill="#f7fafb"></rect><defs><linearGradient id="grad1_0" x1="33.3%" y1="100%" x2="100%" y2="0%"><stop offset="20%" stop-color="#f7fafb" stop-opacity="1"></stop><stop offset="80%" stop-color="#f7fafb" stop-opacity="1"></stop></linearGradient></defs><defs><linearGradient id="grad2_0" x1="0%" y1="100%" x2="66.7%" y2="0%"><stop offset="20%" stop-color="#f7fafb" stop-opacity="1"></stop><stop offset="80%" stop-color="#f7fafb" stop-opacity="1"></stop></linearGradient></defs><g transform="translate(900, 600)"><path d="M-179 0C-181 -7.3 -183 -14.6 -184.6 -22.4C-186.2 -30.3 -187.4 -38.6 -183.8 -45.3C-180.2 -52 -171.8 -57 -168.3 -63.8C-164.8 -70.7 -166.3 -79.4 -162.9 -85.5C-159.5 -91.6 -151.2 -95.2 -147.3 -101.7C-143.4 -108.2 -143.9 -117.6 -140.7 -124.7C-137.6 -131.7 -130.8 -136.3 -123.3 -139.2C-115.9 -142.1 -107.8 -143.3 -101.7 -147.3C-95.5 -151.3 -91.3 -158.2 -85.5 -162.9C-79.7 -167.6 -72.3 -170.1 -64.9 -171.1C-57.5 -172.1 -50 -171.8 -43.1 -174.8C-36.1 -177.8 -29.6 -184.2 -22.5 -185.6C-15.4 -187.1 -7.7 -183.5 0 -180L0 0Z" fill="#2d3092"></path></g><g transform="translate(0, 0)"><path d="M185 0C182.8 7.2 180.7 14.4 179.7 21.8C178.7 29.2 178.9 36.7 176.7 43.6C174.6 50.4 170.1 56.6 168.3 63.8C166.5 71.1 167.3 79.5 164.7 86.4C162.1 93.4 156 98.8 149.8 103.4C143.6 107.9 137.2 111.5 134 118.7C130.7 125.9 130.6 136.6 125.5 141.7C120.4 146.8 110.3 146.4 102.8 149C95.3 151.6 90.4 157.2 84.1 160.3C77.9 163.3 70.3 163.8 63.8 168.3C57.4 172.8 52 181.2 45 182.5C38 183.9 29.3 178.1 21.6 177.7C13.8 177.3 6.9 182.1 0 187L0 0Z" fill="#2d3092"></path></g></svg>