<?xml version="1.0" standalone="no"?>
<svg viewBox="0 0 200 200" xmlns="http://www.w3.org/2000/svg">
  <path fill="#000000" d="M20.3,-29.6C28.1,-30.6,37.6,-28.9,45.2,-23.5C52.8,-18.1,58.6,-9.1,61.8,1.9C65.1,12.8,65.8,25.6,62.8,38.9C59.7,52.2,52.9,65.9,41.8,64.4C30.7,62.9,15.3,46.2,3.3,40.5C-8.7,34.8,-17.5,40.1,-27.2,40.8C-36.9,41.5,-47.7,37.6,-47.6,30.1C-47.5,22.5,-36.6,11.2,-35.7,0.5C-34.7,-10.1,-43.7,-20.3,-44.2,-28.6C-44.7,-36.9,-36.8,-43.4,-28,-41.8C-19.2,-40.3,-9.6,-30.8,-1.7,-27.9C6.2,-25,12.5,-28.7,20.3,-29.6Z" transform="translate(100 100)" />
</svg>
